<svg id="Layer_1" data-name="Layer 1" xmlns="http://www.w3.org/2000/svg" viewBox="0 0 18 17.26">
    <title>login</title>
    <g id="Layer_2" data-name="Layer 2">
        <g id="Layer_1-2" data-name="Layer 1-2">
            <path d="M0,12.21a4.45,4.45,0,0,1,.55-1.46A3.5,3.5,0,0,1,3.3,9.1a2.17,2.17,0,0,1,.36,0H10a3.71,3.71,0,0,1,1.82.44.6.6,0,0,1,.29.8.56.56,0,0,1-.76.23l-.06,0A2.69,2.69,0,0,0,10,10.21H3.67a2.43,2.43,0,0,0-2.54,2.55v2H9.2a1.1,1.1,0,0,1,.36,0,.56.56,0,0,1,.38.56.55.55,0,0,1-.45.52,1.51,1.51,0,0,1-.3,0H.76A.76.76,0,0,1,0,15.46Z"
                  transform="translate(0 -0.09)"/>
            <path d="M18,16.4l-.12.17a1.24,1.24,0,0,1-1.16.77q-2.1,0-4.2,0a1.29,1.29,0,0,1-1.27-1.28c0-.9,0-1.8,0-2.69a1.31,1.31,0,0,1,1.24-1.28,1.33,1.33,0,0,0,.26,0V11a1.88,1.88,0,1,1,3.75-.06v1.11a4.34,4.34,0,0,1,.61.11,1.27,1.27,0,0,1,.75.67A1.33,1.33,0,0,0,18,13Zm-3.36-3.19h-2c-.25,0-.3,0-.3.3,0,.8,0,1.6,0,2.39,0,.26.05.31.3.31h3.91c.22,0,.3-.08.3-.29V13.51c0-.25-.06-.3-.31-.3Zm.72-1.14c0-.42,0-.83,0-1.24a.7.7,0,0,0-.71-.62.69.69,0,0,0-.73.57c0,.42,0,.85,0,1.28Z"
                  transform="translate(0 -0.09)"/>
            <path d="M6.75,7.59A3.75,3.75,0,1,1,10.5,3.84,3.75,3.75,0,0,1,6.75,7.59ZM9.38,3.84A2.63,2.63,0,1,0,6.75,6.46,2.63,2.63,0,0,0,9.38,3.84Z"
                  transform="translate(0 -0.09)"/>
        </g>
    </g>
</svg>
